# xmcd
#
# Track frame offsets:
#	150
#	29363
#	64716
#	96640
#	129362
#	163215
#
# Disc length: 2595 seconds
#
# Revision: 1
# Processed by: cddbd v1.5.2PL0 Copyright (c) Steve Scherf et al.
# Submitted via: EasyCDDAExtractor 16.0.3.2
#
DISCID=500a2106
DTITLE=The Escapists - The P4 Collection
DYEAR=2001
DGENRE=Trip-Hop
TTITLE0=Medication Time
TTITLE1=Dark Sea
TTITLE2=Alien Warming
TTITLE3=Djembe Heaven
TTITLE4=Gonsend
TTITLE5=hidden track
EXTD=
EXTT0=
EXTT1=
EXTT2=
EXTT3=
EXTT4=
EXTT5=
PLAYORDER=
